#Comment line ignore any data following # character 
#Hierarchical Translation and Rotation (.htr) file 
[Header]	
#Header keywords are followed by a single value 
FileType HTR		#Single word string
DataType HTRS		#Translation followed by rotation and scale data
FileVersion 1		#integer
NumSegments 64		#integer
NumFrames 3		#integer
DataFrameRate 30		#integer, data frame rate in this file
EulerRotationOrder ZYX
CalibrationUnits mm
RotationUnits Degrees
GlobalAxisofGravity Y
BoneLengthAxis Y
ScaleFactor 1.00
[SegmentNames&Hierarchy]
#CHILD	PARENT
Pinger_Root GLOBAL
Pelvis Pinger_Root
L_Hip Pelvis
R_Hip Pelvis
Rear_Leg01 Pelvis
Spine1 Pelvis
L_Leg01 L_Hip
L_Leg02 L_Leg01
L_Leg03 L_Leg02
L_Foot L_Leg03
L_Toe1_01 L_Foot
L_Toe2_01 L_Foot
L_Toe3_01 L_Foot
planeAlignerLeft L_Foot
L_Toe1_02 L_Toe1_01
L_Toe1_03 L_Toe1_02
L_Toe2_02 L_Toe2_01
L_Toe2_03 L_Toe2_02
L_Toe3_02 L_Toe3_01
L_Toe3_03 L_Toe3_02
planeLockWeightLeft planeAlignerLeft
R_Leg01 R_Hip
R_Leg02 R_Leg01
R_Leg03 R_Leg02
R_Foot R_Leg03
planeAlignerRight R_Foot
R_Toe1_01 R_Foot
R_Toe2_01 R_Foot
R_Toe3_01 R_Foot
planeLockWeightRight planeAlignerRight
R_Toe1_02 R_Toe1_01
R_Toe1_03 R_Toe1_02
R_Toe2_02 R_Toe2_01
R_Toe2_03 R_Toe2_02
R_Toe3_02 R_Toe3_01
R_Toe3_03 R_Toe3_02
Rear_Leg02 Rear_Leg01
Rear_Leg03 Rear_Leg02
Rear_Leg04 Rear_Leg03
Rear_Foot Rear_Leg04
planeAlignerCenter Rear_Foot
Rear_Toe1_01 Rear_Foot
Rear_Toe2_01 Rear_Foot
Rear_Toe3_01 Rear_Foot
planeLockWeightCenter planeAlignerCenter
Rear_Toe1_02 Rear_Toe1_01
Rear_Toe1_03 Rear_Toe1_02
Rear_Toe2_02 Rear_Toe2_01
Rear_Toe2_03 Rear_Toe2_02
Rear_Toe3_02 Rear_Toe3_01
Rear_Toe3_03 Rear_Toe3_02
Back_Bone Spine1
Head Spine1
Motor_Bone Back_Bone
Ping_Mechanism Back_Bone
BN_LookIK Head
bottomMouth Head
L_Mouth01 Head
L_mouthFront Head
mouthGun Head
R_Mouth01 Head
R_mouthFront Head
TopMouth Head
weapon_bone Head
[BasePosition]
#SegmentName Tx, Ty, Tz, Rx, Ry, Rz, BoneLength
Pinger_Root 0.000000 0.000000 0.000000 -90.000000 0.000000 0.000000 10.000000 
Pelvis 0.000000 0.000000 0.000000 0.000000 0.000000 0.000000 10.000000 
L_Hip 0.000000 0.000000 0.000000 0.000000 0.000000 0.000000 10.000000 
R_Hip 0.000000 0.000000 0.000000 0.000000 0.000000 0.000000 10.000000 
Rear_Leg01 0.000000 0.000000 0.000000 0.000000 0.000000 0.000000 10.000000 
Spine1 0.000000 0.000000 0.000000 0.000000 0.000000 0.000000 10.000000 
L_Leg01 0.000000 0.000000 0.000000 0.000000 0.000000 0.000000 10.000000 
L_Leg02 0.000000 0.000000 0.000000 0.000000 0.000000 0.000000 10.000000 
L_Leg03 0.000000 0.000000 0.000000 0.000000 0.000000 0.000000 10.000000 
L_Foot 0.000000 0.000000 0.000000 0.000000 0.000000 0.000000 10.000000 
L_Toe1_01 0.000000 0.000000 0.000000 0.000000 0.000000 0.000000 10.000000 
L_Toe2_01 0.000000 0.000000 0.000000 0.000000 0.000000 0.000000 10.000000 
L_Toe3_01 0.000000 0.000000 0.000000 0.000000 0.000000 0.000000 10.000000 
planeAlignerLeft 0.000000 0.000000 0.000000 0.000000 0.000000 0.000000 10.000000 
L_Toe1_02 0.000000 0.000000 0.000000 0.000000 0.000000 0.000000 10.000000 
L_Toe1_03 0.000000 0.000000 0.000000 0.000000 0.000000 0.000000 10.000000 
L_Toe2_02 0.000000 0.000000 0.000000 0.000000 0.000000 0.000000 10.000000 
L_Toe2_03 0.000000 0.000000 0.000000 0.000000 0.000000 0.000000 10.000000 
L_Toe3_02 0.000000 0.000000 0.000000 0.000000 0.000000 0.000000 10.000000 
L_Toe3_03 0.000000 0.000000 0.000000 0.000000 0.000000 0.000000 10.000000 
planeLockWeightLeft 0.000000 0.000000 0.000000 0.000000 0.000000 0.000000 10.000000 
R_Leg01 0.000000 0.000000 0.000000 0.000000 0.000000 0.000000 10.000000 
R_Leg02 0.000000 0.000000 0.000000 0.000000 0.000000 0.000000 10.000000 
R_Leg03 0.000000 0.000000 0.000000 0.000000 0.000000 0.000000 10.000000 
R_Foot 0.000000 0.000000 0.000000 0.000000 0.000000 0.000000 10.000000 
planeAlignerRight 0.000000 0.000000 0.000000 0.000000 0.000000 0.000000 10.000000 
R_Toe1_01 0.000000 0.000000 0.000000 0.000000 0.000000 0.000000 10.000000 
R_Toe2_01 0.000000 0.000000 0.000000 0.000000 0.000000 0.000000 10.000000 
R_Toe3_01 0.000000 0.000000 0.000000 0.000000 0.000000 0.000000 10.000000 
planeLockWeightRight 0.000000 0.000000 0.000000 0.000000 0.000000 0.000000 10.000000 
R_Toe1_02 0.000000 0.000000 0.000000 0.000000 0.000000 0.000000 10.000000 
R_Toe1_03 0.000000 0.000000 0.000000 0.000000 0.000000 0.000000 10.000000 
R_Toe2_02 0.000000 0.000000 0.000000 0.000000 0.000000 0.000000 10.000000 
R_Toe2_03 0.000000 0.000000 0.000000 0.000000 0.000000 0.000000 10.000000 
R_Toe3_02 0.000000 0.000000 0.000000 0.000000 0.000000 0.000000 10.000000 
R_Toe3_03 0.000000 0.000000 0.000000 0.000000 0.000000 0.000000 10.000000 
Rear_Leg02 0.000000 0.000000 0.000000 0.000000 0.000000 0.000000 10.000000 
Rear_Leg03 0.000000 0.000000 0.000000 0.000000 0.000000 0.000000 10.000000 
Rear_Leg04 0.000000 0.000000 0.000000 0.000000 0.000000 0.000000 10.000000 
Rear_Foot 0.000000 0.000000 0.000000 0.000000 0.000000 0.000000 10.000000 
planeAlignerCenter 0.000000 0.000000 0.000000 0.000000 0.000000 0.000000 10.000000 
Rear_Toe1_01 0.000000 0.000000 0.000000 0.000000 0.000000 0.000000 10.000000 
Rear_Toe2_01 0.000000 0.000000 0.000000 0.000000 0.000000 0.000000 10.000000 
Rear_Toe3_01 0.000000 0.000000 0.000000 0.000000 0.000000 0.000000 10.000000 
planeLockWeightCenter 0.000000 0.000000 0.000000 0.000000 0.000000 0.000000 10.000000 
Rear_Toe1_02 0.000000 0.000000 0.000000 0.000000 0.000000 0.000000 10.000000 
Rear_Toe1_03 0.000000 0.000000 0.000000 0.000000 0.000000 0.000000 10.000000 
Rear_Toe2_02 0.000000 0.000000 0.000000 0.000000 0.000000 0.000000 10.000000 
Rear_Toe2_03 0.000000 0.000000 0.000000 0.000000 0.000000 0.000000 10.000000 
Rear_Toe3_02 0.000000 0.000000 0.000000 0.000000 0.000000 0.000000 10.000000 
Rear_Toe3_03 0.000000 0.000000 0.000000 0.000000 0.000000 0.000000 10.000000 
Back_Bone 0.000000 0.000000 0.000000 0.000000 0.000000 0.000000 10.000000 
Head 0.000000 0.000000 0.000000 0.000000 0.000000 0.000000 10.000000 
Motor_Bone 0.000000 0.000000 0.000000 0.000000 0.000000 0.000000 10.000000 
Ping_Mechanism 0.000000 0.000000 0.000000 0.000000 0.000000 0.000000 10.000000 
BN_LookIK 0.000000 0.000000 0.000000 0.000000 0.000000 0.000000 10.000000 
bottomMouth 0.000000 0.000000 0.000000 0.000000 0.000000 0.000000 10.000000 
L_Mouth01 0.000000 0.000000 0.000000 0.000000 0.000000 0.000000 10.000000 
L_mouthFront 0.000000 0.000000 0.000000 0.000000 0.000000 0.000000 10.000000 
mouthGun 0.000000 0.000000 0.000000 0.000000 0.000000 0.000000 10.000000 
R_Mouth01 0.000000 0.000000 0.000000 0.000000 0.000000 0.000000 10.000000 
R_mouthFront 0.000000 0.000000 0.000000 0.000000 0.000000 0.000000 10.000000 
TopMouth 0.000000 0.000000 0.000000 0.000000 0.000000 0.000000 10.000000 
weapon_bone 0.000000 0.000000 0.000000 0.000000 0.000000 0.000000 10.000000 
#Beginning of Data. Separated by tabs
#Fr	Tx	Ty	Tz	Rx	Ry	Rz	SF
[Pinger_Root]
99 0.000000 0.000000 0.000000 -0.000075 -0.000000 -0.000020 0.000000
100 0.000000 0.000000 0.000000 -0.000075 -0.000000 -0.000020 0.000000
101 0.000000 0.000000 0.000000 -0.000075 -0.000000 -0.000020 0.000000
[Pelvis]
99 -1243.748169 11089.460938 -1180.262329 175.759750 -88.370811 168.622269 11221.233398
100 -1243.023438 11065.414063 -1056.505859 125.291977 -87.829582 -141.469269 11185.021484
101 -1242.853394 11056.373047 -953.127075 111.623909 -87.411850 -127.996735 11166.759766
[L_Hip]
99 5.766392 125.831482 872.656799 -178.253311 -81.787758 87.381340 881.701050
100 5.766392 125.831482 872.656799 -178.253311 -81.787758 87.381340 881.701050
101 5.766392 125.831482 872.656799 -178.253326 -81.787636 87.381203 881.701050
[R_Hip]
99 5.765438 125.836372 -872.654907 -1.746690 81.787712 87.381248 881.699829
100 5.765438 125.836372 -872.654907 -1.746690 81.787712 87.381248 881.699829
101 5.765438 125.836372 -872.654907 -1.746701 81.787666 87.381203 881.699829
[Rear_Leg01]
99 -192.298416 -925.602966 -0.001907 151.312057 20.385645 -124.639984 945.367432
100 -192.298416 -925.602966 -0.001907 151.323380 20.866268 -123.839363 945.367432
101 -192.298416 -925.602966 -0.001907 151.451370 21.002813 -123.848854 945.367432
[Spine1]
99 290.604584 5.007505 0.000477 9.532763 0.548460 20.377789 290.647736
100 290.604584 5.007505 0.000477 9.433519 0.150964 22.610664 290.647736
101 290.604584 5.007505 0.000477 9.317909 -0.139524 23.476206 290.647736
[L_Leg01]
99 761.932007 -0.002384 -0.069261 63.720139 -9.282318 -70.219131 761.932068
100 761.932007 -0.002384 -0.069261 63.505310 -7.475703 -71.104958 761.932068
101 761.932007 -0.002384 -0.069261 63.329235 -6.738725 -71.750832 761.932068
[L_Leg02]
99 1441.140503 -0.000954 -0.000715 -1.296365 0.842239 -68.561279 1441.140503
100 1441.140503 -0.000954 -0.000715 -1.223170 0.905534 -64.018448 1441.140503
101 1441.140503 -0.000954 -0.000715 -1.165050 0.955315 -60.304962 1441.140503
[L_Leg03]
99 1686.963989 -0.000715 -0.000954 0.119673 -0.011972 77.936203 1686.963989
100 1686.963989 -0.000715 -0.000954 0.140849 -0.002759 72.228477 1686.963989
101 1686.963989 -0.000715 -0.000954 0.158675 0.003101 67.457047 1686.963989
[L_Foot]
99 3041.570068 -30.715107 11.297464 -11.094908 12.422364 30.631237 3041.746094
100 3041.570068 -30.715107 11.297464 -10.785765 12.442896 32.055645 3041.746094
101 3041.570068 -30.715107 11.297464 -10.476175 12.455918 33.480228 3041.746094
[L_Toe1_01]
99 -188.216690 -224.732346 -21.137953 89.060005 -3.766470 -164.649506 293.899567
100 -188.216690 -224.732346 -21.137953 89.031616 -3.845581 -164.178986 293.899567
101 -188.216690 -224.732346 -21.137953 89.002579 -3.924455 -163.708374 293.899567
[L_Toe2_01]
99 200.746536 -219.926590 148.838394 -77.478867 -13.660425 -46.347191 332.896027
100 200.746536 -219.926590 148.838394 -77.331673 -13.527389 -47.057396 332.896027
101 200.746536 -219.926590 148.838394 -77.186218 -13.392558 -47.766987 332.896027
[L_Toe3_01]
99 188.832520 -219.859131 -191.078659 -104.184616 13.625486 -47.114243 347.140900
100 188.832520 -219.859131 -191.078659 -104.269836 13.315645 -47.821270 347.140900
101 188.832520 -219.859131 -191.078659 -104.351036 13.004702 -48.527134 347.140900
[planeAlignerLeft]
99 0.812531 -811.448792 -0.314951 0.000000 -90.000000 -90.001900 811.449280
100 0.812531 -811.448792 -0.314951 0.000000 -90.000000 -90.001900 811.449280
101 0.812531 -811.448792 -0.314951 0.000000 -90.000000 -90.001900 811.449280
[L_Toe1_02]
99 413.761139 0.000477 0.000000 0.001417 -21.848974 0.001417 413.761139
100 413.761139 0.000477 0.000000 0.001417 -21.861065 0.001417 413.761139
101 413.761139 0.000477 0.000000 0.001417 -21.873152 0.001417 413.761139
[L_Toe1_03]
99 464.317322 0.000358 -0.000089 0.021363 83.701439 0.021363 464.317322
100 464.317322 0.000358 -0.000089 0.021834 83.837540 0.021834 464.317322
101 464.317322 0.000358 -0.000089 0.021419 83.717964 0.021419 464.317322
[L_Toe2_02]
99 342.235809 -0.000477 0.000238 0.001183 -75.933510 0.001183 342.235809
100 342.235809 -0.000477 0.000238 0.001183 -75.459824 0.001183 342.235809
101 342.235809 -0.000477 0.000238 0.001184 -74.986092 0.001184 342.235809
[L_Toe2_03]
99 420.210846 -0.000715 0.000000 -179.990723 84.030045 -179.987213 420.210846
100 420.210846 -0.000715 0.000000 -179.986969 85.546448 -179.983444 420.210846
101 420.210846 -0.000715 0.000000 -179.979324 87.062416 -179.975830 420.210846
[L_Toe3_02]
99 329.270111 0.000954 0.000000 0.001178 -80.448128 0.001178 329.270111
100 329.270111 0.000954 0.000000 0.001178 -80.127571 0.001178 329.270111
101 329.270111 0.000954 0.000000 0.001178 -79.806862 0.001178 329.270111
[L_Toe3_03]
99 439.137451 -0.001907 0.000954 -179.996033 78.489502 -179.992508 439.137451
100 439.137451 -0.001907 0.000954 -179.995300 79.783691 -179.991791 439.137451
101 439.137451 -0.001907 0.000954 -179.994370 81.077820 -179.990860 439.137451
[planeLockWeightLeft]
99 -0.000954 0.000238 -0.000305 -0.011826 -0.004376 0.005620 0.001029
100 -0.000954 0.000238 -0.000305 -0.011826 -0.004376 0.005620 0.001029
101 -0.000954 0.000238 -0.000305 -0.011826 -0.004376 0.005620 0.001029
[R_Leg01]
99 761.455627 -0.001907 -0.000358 83.682976 0.628136 76.960068 761.455688
100 761.455627 -0.001907 -0.000358 82.745949 -0.165726 77.474266 761.455688
101 761.455627 -0.001907 -0.000358 82.420647 -1.431721 77.816452 761.455688
[R_Leg02]
99 1441.140625 0.000000 -0.000238 0.213294 0.043974 -82.241287 1441.140625
100 1441.140625 0.000000 -0.000238 0.216959 0.037962 -81.032303 1441.140625
101 1441.140625 0.000000 -0.000238 0.213444 0.033175 -80.189232 1441.140625
[R_Leg03]
99 1686.963989 0.000954 0.001431 -0.031811 0.010141 101.164444 1686.963989
100 1686.963989 0.000954 0.001431 -0.049384 0.013511 96.957451 1686.963989
101 1686.963989 0.000954 0.001431 -0.063778 0.012297 93.237244 1686.963989
[R_Foot]
99 3041.560059 -30.531288 -11.204481 16.501303 -23.024828 66.020920 3041.734131
100 3041.560059 -30.531288 -11.204481 16.106182 -23.055162 66.822929 3041.734131
101 3041.560059 -30.531288 -11.204481 15.899242 -23.078924 67.899567 3041.734131
[planeAlignerRight]
99 -0.635147 -812.270569 -0.364304 0.000000 -89.960434 -90.005180 812.270874
100 -0.635147 -812.270569 -0.364304 0.000000 -89.960434 -90.005180 812.270874
101 -0.635147 -812.270569 -0.364304 0.000000 -89.960434 -90.005180 812.270874
[R_Toe1_01]
99 -188.383347 -224.864899 21.052242 91.114113 1.958374 -157.479965 294.101532
100 -188.383347 -224.864899 21.052242 91.134460 1.956887 -157.288361 294.101532
101 -188.383347 -224.864899 21.052242 91.154808 1.955336 -157.096756 294.101532
[R_Toe2_01]
99 200.637817 -220.002121 -148.787384 -102.850830 11.091064 -52.005951 332.857574
100 200.637817 -220.002121 -148.787384 -102.851456 11.059385 -52.180004 332.857574
101 200.637817 -220.002121 -148.787384 -102.851982 11.027700 -52.354042 332.857574
[R_Toe3_01]
99 188.606735 -220.092957 191.126343 -72.575233 -13.570739 -53.901974 347.192566
100 188.606735 -220.092957 191.126343 -72.547371 -13.520980 -54.074104 347.192566
101 188.606735 -220.092957 191.126343 -72.519646 -13.471138 -54.246159 347.192566
[planeLockWeightRight]
99 -0.000477 0.000000 0.000000 -0.011823 -0.004379 -0.000027 0.000477
100 -0.000477 0.000000 0.000000 -0.011823 -0.004379 -0.000027 0.000477
101 -0.000477 0.000000 0.000000 -0.011823 -0.004379 -0.000027 0.000477
[R_Toe1_02]
99 413.762085 0.000477 -0.000119 0.001401 -23.816822 0.001401 413.762085
100 413.762085 0.000477 -0.000119 0.001401 -23.852724 0.001401 413.762085
101 413.762085 0.000477 -0.000119 0.001400 -23.888626 0.001400 413.762085
[R_Toe1_03]
99 464.317810 0.000000 0.001088 0.008571 74.258598 0.008571 464.317810
100 464.317810 0.000000 0.001088 0.008454 74.039841 0.008454 464.317810
101 464.317810 0.000000 0.001088 0.008340 73.821152 0.008340 464.317810
[R_Toe2_02]
99 342.234741 -0.000954 0.000238 -0.001021 -74.570244 -0.001021 342.234741
100 342.234741 -0.000954 0.000238 -0.000874 -74.492950 -0.000874 342.234741
101 342.234741 -0.000954 0.000238 -0.000727 -74.415619 -0.000727 342.234741
[R_Toe2_03]
99 420.210846 0.000715 -0.000268 -179.961166 88.224251 -179.964661 420.210846
100 420.210846 0.000715 -0.000268 -179.954819 88.483147 -179.958313 420.210846
101 420.210846 0.000715 -0.000268 -179.945877 88.742584 -179.949371 420.210846
[R_Toe3_02]
99 329.270355 -0.000477 -0.000954 0.001179 -78.565666 0.001179 329.270355
100 329.270355 -0.000477 -0.000954 0.001180 -78.494614 0.001180 329.270355
101 329.270355 -0.000477 -0.000954 0.001180 -78.423553 0.001180 329.270355
[R_Toe3_03]
99 439.137939 0.000238 0.001431 -179.987259 85.454079 -179.983765 439.137939
100 439.137939 0.000238 0.001431 -179.986435 85.698257 -179.982925 439.137939
101 439.137939 0.000238 0.001431 -179.985519 85.942520 -179.982010 439.137939
[Rear_Leg02]
99 1162.777710 -0.029802 0.005960 1.215387 -27.042484 -55.374630 1162.777710
100 1162.777710 -0.029802 0.005960 -0.422175 -26.995859 -52.126339 1162.777710
101 1162.777710 -0.029802 0.005960 -2.196548 -26.846426 -48.550140 1162.777710
[Rear_Leg03]
99 607.192505 -0.013351 -0.073195 0.006529 -0.001937 61.263847 607.192505
100 607.192505 -0.013351 -0.073195 0.006550 -0.001863 59.956200 607.192505
101 607.192505 -0.013351 -0.073195 0.006574 -0.001781 58.538784 607.192505
[Rear_Leg04]
99 995.874512 -0.020504 -0.011921 -0.039712 -0.017159 52.535851 995.874573
100 995.874512 -0.020504 -0.011921 -0.038282 -0.015811 49.957661 995.874573
101 995.874512 -0.020504 -0.011921 -0.036913 -0.014400 47.379471 995.874573
[Rear_Foot]
99 3096.176270 -0.067472 -0.041425 -126.720871 57.500843 48.449978 3096.176270
100 3096.176270 -0.067472 -0.041425 -125.945671 57.843288 49.402370 3096.176270
101 3096.176270 -0.067472 -0.041425 -125.152374 58.178684 50.372459 3096.176270
[planeAlignerCenter]
99 0.350077 0.966311 -838.790894 0.000009 0.000003 -179.999985 838.791565
100 0.350077 0.966311 -838.790894 0.000009 0.000003 -179.999985 838.791565
101 0.350077 0.966311 -838.790894 0.000009 0.000003 -179.999985 838.791565
[Rear_Toe1_01]
99 0.653352 83.966492 -371.173737 -0.138113 30.784531 89.611870 380.553192
100 0.653352 83.966492 -371.173737 -0.125499 31.726591 89.644852 380.553192
101 0.653352 83.966492 -371.173737 -0.112112 32.668705 89.678421 380.553192
[Rear_Toe2_01]
99 178.200760 -294.826019 -362.060547 -0.273285 53.004208 -71.045128 499.765686
100 178.200760 -294.826019 -362.060547 -0.410231 53.462143 -71.202126 499.765686
101 178.200760 -294.826019 -362.060547 -0.550792 53.919804 -71.362648 499.765686
[Rear_Toe3_01]
99 -153.359680 -308.780914 -362.060852 0.276848 53.089748 -110.310181 499.952881
100 -153.359680 -308.780914 -362.060852 0.342104 53.588142 -110.260696 499.952881
101 -153.359680 -308.780914 -362.060852 0.429791 53.913429 -110.188690 499.952881
[planeLockWeightCenter]
99 -0.000062 0.000238 0.000000 -0.011814 -0.004373 -0.000015 0.000246
100 -0.000062 0.000238 0.000000 -0.011814 -0.004373 -0.000015 0.000246
101 -0.000062 0.000238 0.000000 -0.011814 -0.004373 -0.000015 0.000246
[Rear_Toe1_02]
99 379.707825 0.194073 0.000477 0.001048 -33.465607 0.002279 379.707855
100 379.707825 0.194073 0.000477 0.000907 -33.406685 0.002751 379.707855
101 379.707825 0.194073 0.000477 0.000767 -33.347759 0.003224 379.707855
[Rear_Toe1_03]
99 500.129700 0.165701 0.000119 0.002614 68.756416 0.003801 500.129761
100 500.129700 0.165701 0.000119 0.001265 67.753235 0.002850 500.129761
101 500.129700 0.165701 0.000119 0.000012 66.750031 0.001997 500.129761
[Rear_Toe2_02]
99 340.494507 0.000238 -0.000954 0.001182 -77.112930 0.001182 340.494507
100 340.494507 0.000238 -0.000954 0.001182 -76.430748 0.001182 340.494507
101 340.494507 0.000238 -0.000954 0.001183 -75.748466 0.001183 340.494507
[Rear_Toe2_03]
99 433.103577 0.000000 0.000238 0.017075 82.105865 0.017075 433.103546
100 433.103577 0.000000 0.000238 0.014761 80.866470 0.014761 433.103546
101 433.103577 0.000000 0.000238 0.012999 79.627510 0.012999 433.103546
[Rear_Toe3_02]
99 340.494141 -0.000358 -0.000477 0.001181 -77.519096 0.001181 340.494171
100 340.494141 -0.000358 -0.000477 0.001182 -76.801666 0.001182 340.494171
101 340.494141 -0.000358 -0.000477 0.001183 -76.084076 0.001183 340.494171
[Rear_Toe3_03]
99 433.103577 0.001431 -0.000238 0.000193 82.797783 0.002385 433.103546
100 433.103577 0.001431 -0.000238 0.003163 81.490868 0.004918 433.103546
101 433.103577 0.001431 -0.000238 0.005402 80.183975 0.006719 433.103546
[Back_Bone]
99 1312.175781 -701.934692 0.000954 1.440002 0.288408 -96.956657 1488.125488
100 1312.175781 -701.934692 0.000954 1.432512 0.341615 -98.974945 1488.125488
101 1312.175781 -701.934692 0.000954 1.432732 0.362166 -99.759514 1488.125488
[Head]
99 1406.159424 809.709290 0.001431 3.093037 -3.391299 9.260450 1622.625488
100 1406.159424 809.709290 0.001431 3.662691 -3.730071 9.234963 1622.625488
101 1406.159424 809.709290 0.001431 3.899792 -3.864392 9.253466 1622.625488
[Motor_Bone]
99 1158.364380 -417.834747 0.000477 -0.103881 0.077954 -105.913422 1231.419434
100 1158.364380 -417.834747 0.000477 -0.105095 0.078218 -105.913094 1231.419434
101 1158.364380 -417.834747 0.000477 -0.106309 0.078483 -105.912773 1231.419434
[Ping_Mechanism]
99 1270.098755 -298.334198 -10.110164 0.000103 -0.000053 82.120995 1304.705566
100 1271.603516 -248.916321 -9.841906 0.000103 -0.000053 82.120995 1295.774536
101 1276.130981 -200.284668 -8.964669 0.000103 -0.000053 82.120995 1291.783569
[BN_LookIK]
99 193.241119 1380.371704 -0.002861 0.000000 89.965736 -31.038179 1393.832153
100 193.241119 1380.371704 -0.002861 0.000000 89.965736 -31.038179 1393.832153
101 193.241119 1380.371704 -0.002861 0.000000 89.965736 -31.038179 1393.832153
[bottomMouth]
99 -435.092926 615.759399 -0.000954 -0.000022 0.000016 73.527184 753.966492
100 -435.092926 615.759399 -0.000954 -0.000022 0.000016 73.527184 753.966492
101 -435.092926 615.759399 -0.000954 -0.000022 0.000016 73.527184 753.966492
[L_Mouth01]
99 554.440979 7.658243 838.222046 150.204178 23.759130 109.605339 1005.027161
100 554.440979 7.658243 838.222046 150.204178 23.759130 109.605339 1005.027161
101 554.440979 7.658243 838.222046 150.204178 23.759130 109.605339 1005.027161
[L_mouthFront]
99 551.629089 934.514771 339.150421 0.000081 2.804060 79.119301 1136.941284
100 551.629089 934.514771 339.150421 0.000081 2.804060 79.119301 1136.941284
101 551.629089 934.514771 339.150421 0.000081 2.804060 79.119301 1136.941284
[mouthGun]
99 55.332661 1627.420898 0.000000 0.000023 0.000009 -11.038128 1628.361328
100 55.332661 1627.420898 0.000000 0.000023 0.000009 -11.038128 1628.361328
101 55.332661 1627.420898 0.000000 0.000023 0.000009 -11.038128 1628.361328
[R_Mouth01]
99 554.442383 7.659197 -838.223938 29.795891 -23.759109 109.605331 1005.029541
100 554.442383 7.659197 -838.223938 29.795891 -23.759109 109.605331 1005.029541
101 554.442383 7.659197 -838.223938 29.795891 -23.759109 109.605331 1005.029541
[R_mouthFront]
99 551.629089 934.514282 -339.151367 0.000029 -2.803930 79.119133 1136.941162
100 551.629089 934.514282 -339.151367 0.000029 -2.803930 79.119133 1136.941162
101 551.629089 934.514282 -339.151367 0.000029 -2.803930 79.119133 1136.941162
[TopMouth]
99 461.269867 -56.106091 -0.008583 -0.000059 -0.000268 92.025169 464.669525
100 461.269867 -56.106091 -0.008583 -0.000059 -0.000268 92.025169 464.669525
101 461.269867 -56.106091 -0.008583 -0.000059 -0.000268 92.025169 464.669525
[weapon_bone]
99 -987.239868 1448.372803 0.001431 0.000000 89.965736 -31.038221 1752.833740
100 -987.239868 1448.372803 0.001431 0.000000 89.965736 -31.038221 1752.833740
101 -987.239868 1448.372803 0.001431 0.000000 89.965736 -31.038221 1752.833740
